<?xml version="1.0" encoding="UTF-8" standalone="no"?><!DOCTYPE svg PUBLIC "-//W3C//DTD SVG 1.1//EN" "http://www.w3.org/Graphics/SVG/1.1/DTD/svg11.dtd"><svg width="100%" height="100%" viewBox="0 0 99 85" version="1.1" xmlns="http://www.w3.org/2000/svg" xmlns:xlink="http://www.w3.org/1999/xlink" xml:space="preserve" xmlns:serif="http://www.serif.com/" style="fill-rule:evenodd;clip-rule:evenodd;stroke-linecap:round;stroke-linejoin:round;stroke-miterlimit:1.5;"><rect id="Artboard1" x="0" y="0" width="98.837" height="84.576" style="fill:none;"/><path d="M49.859,3.262l37.054,37.054l-37.054,37.054l-37.055,-37.054l37.055,-37.054Z" style="fill:#ffdc84;"/><g><path d="M49.859,40.327l-10.139,-16.563l20.277,0l-10.138,16.563Z" style="fill:#3b3b3b;stroke:#202020;stroke-width:1.67px;"/><path d="M49.859,37.689l-4.91,-8.021l9.819,0l-4.909,8.021Z" style="fill:#ffdc84;"/><path d="M49.859,40.327l-10.139,16.562l20.277,0l-10.138,-16.562Z" style="fill:#3b3b3b;stroke:#202020;stroke-width:1.67px;"/><path d="M49.859,48.608l-4.45,6.656l8.9,0l-4.45,-6.656Z" style="fill:#ffdc84;"/><circle cx="49.859" cy="43.63" r="0.44" style="fill:#ffdc84;"/><circle cx="49.859" cy="45.446" r="0.44" style="fill:#ffdc84;"/><circle cx="49.859" cy="47.263" r="0.44" style="fill:#ffdc84;"/><path d="M63.299,58.068c0,-0.318 -0.127,-0.624 -0.352,-0.849c-0.225,-0.225 -0.53,-0.351 -0.848,-0.351c-4.456,0 -20.024,0 -24.48,0c-0.319,0 -0.624,0.126 -0.849,0.351c-0.225,0.225 -0.351,0.531 -0.351,0.849c0,0.98 0,2.203 0,2.203l26.88,0c0,0 0,-1.223 0,-2.203Z" style="fill:#202020;"/><path d="M63.299,20.361l-26.88,0c0,0 0,1.224 0,2.203c0,0.319 0.126,0.624 0.351,0.849c0.225,0.225 0.53,0.351 0.849,0.351c4.456,0 20.024,0 24.48,0c0.318,0 0.623,-0.126 0.848,-0.351c0.225,-0.225 0.352,-0.53 0.352,-0.849c0,-0.979 0,-2.203 0,-2.203Z" style="fill:#202020;"/></g></svg>